<?xml version="1.0" encoding="utf-8"?>
<!-- Generator: Adobe Illustrator 23.0.1, SVG Export Plug-In . SVG Version: 6.00 Build 0)  -->
<svg version="1.1" id="Calque_1" xmlns="http://www.w3.org/2000/svg" xmlns:xlink="http://www.w3.org/1999/xlink" x="0px" y="0px"
	 viewBox="0 0 1150 420.59" style="enable-background:new 0 0 1150 420.59;" xml:space="preserve">
<style type="text/css">
	.st0{fill:#FFFFFF;}
</style>
<g>
	<path class="st0" d="M924.49,23.76c-27.57,0-50,22.43-50,50v272c0,27.57,22.43,50,50,50s50-22.43,50-50v-272
		C974.49,46.19,952.06,23.76,924.49,23.76z M944.49,73.76v272c0,11.03-8.97,20-20,20s-20-8.97-20-20v-272c0-11.03,8.97-20,20-20
		S944.49,62.73,944.49,73.76z"/>
	<path class="st0" d="M74.21,23.76c-27.57,0-50,22.43-50,50v272c0,27.57,22.43,50,50,50s50-22.43,50-50v-19h-30v19
		c0,11.03-8.97,20-20,20s-20-8.97-20-20v-272c0-11.03,8.97-20,20-20s20,8.97,20,20v19h30v-19C124.21,46.19,101.78,23.76,74.21,23.76
		z"/>
	<path class="st0" d="M221.69,222.79c31.52-11.19,43.93-31.14,43.93-69.7c0-20.07,0.3-58.9,0.3-59.33c0-45.79-24.21-70-70-70h-37.07
		l30,30h7.07c27.66,0,40,12.34,40,40v58.8c0,31.2-20.23,42.27-37.55,42.27c-1.02,0-1.82,0-2.45,0v-0.07h-30v201h30V241.89
		l41.16,153.87h30.34l-1.67-6.28C252.05,337.81,227.21,244.03,221.69,222.79z"/>
	<polygon class="st0" points="484.81,23.26 448.84,395.26 478.89,395.26 499.34,181.8 519.74,395.65 549.87,396.4 513.89,23.26 	"/>
	<polygon class="st0" points="307.13,53.76 385.21,53.76 415.21,23.76 307.13,23.76 	"/>
	<polygon class="st0" points="385.21,194.76 307.13,194.76 307.13,224.76 355.21,224.76 	"/>
	<polygon class="st0" points="307.13,395.76 385.21,395.76 415.21,365.76 307.13,365.76 	"/>
	<polygon class="st0" points="1045.71,365.76 1045.71,23.76 1015.71,23.76 1015.71,395.76 1093.78,395.76 1123.78,365.76 	"/>
	<polygon class="st0" points="662.82,24.76 620.56,169.06 620.56,23.76 590.56,23.76 590.56,395.76 620.56,395.76 620.56,251.46 
		662.82,395.76 693.24,395.76 638.92,210.26 693.24,24.76 	"/>
	<polygon class="st0" points="797.71,237.38 755.82,23.82 726.71,23.82 726.71,395.82 756.71,395.82 756.71,182.27 798.59,395.82 
		827.71,395.82 827.71,23.82 797.71,23.82 	"/>
</g>
</svg>
